<?xml version="1.0" encoding="utf-8"?>
<!-- Generator: Adobe Illustrator 25.2.1, SVG Export Plug-In . SVG Version: 6.00 Build 0)  -->
<svg version="1.1" id="Layer_1" xmlns="http://www.w3.org/2000/svg" xmlns:xlink="http://www.w3.org/1999/xlink" x="0px" y="0px"
	 viewBox="0 0 516 516" style="enable-background:new 0 0 516 516;" xml:space="preserve">
<style type="text/css">
	.st0{fill-rule:evenodd;clip-rule:evenodd;fill:#303841;}
	.st1{fill:#F6C92E;}
	.st2{fill:#FEFEFE;}
	.st3{fill:#FFFFFF;}
</style>
<path class="st0" d="M73.8,0.2H443c40.6,0,73.4,34,73.4,76v364c0,42-32.9,76-73.4,76H73.8c-40.6,0-73.4-34-73.4-76v-364
	C0.4,34.3,33.3,0.2,73.8,0.2z"/>
<g>
	<path class="st1" d="M159.3,347c1.8,0,3.5,0.7,4.8,2c1.3,1.3,2,2.9,2,4.8V371c0,1.9-0.7,3.6-2.2,5c-7.3,6.6-15.8,9.9-25.6,9.9
		c-10.5,0-19.5-3.7-26.9-11.2c-7.5-7.4-11.2-16.4-11.2-26.9c0-10.5,3.7-19.5,11.2-26.9c7.4-7.4,16.4-11.1,26.9-11.1
		c9.2,0,17.2,2.9,24.2,8.7c1.4,1.2,2.2,2.7,2.4,4.5s-0.3,3.5-1.5,4.9c-1.2,1.4-2.7,2.2-4.5,2.5c-1.8,0.2-3.5-0.3-5-1.5
		c-4.5-3.8-9.7-5.6-15.6-5.6c-6.8,0-12.6,2.4-17.5,7.2c-4.8,4.8-7.2,10.6-7.2,17.4c0,6.8,2.4,12.6,7.2,17.5
		c4.9,4.8,10.7,7.2,17.5,7.2c5.3,0,10-1.6,14.3-4.7v-14c0-1.9,0.7-3.5,2-4.8C155.9,347.7,157.5,347,159.3,347z"/>
	<path class="st1" d="M210.5,309.7c10.5,0,19.5,3.7,26.9,11.1c7.4,7.5,11.1,16.4,11.1,26.9c0,10.5-3.7,19.5-11.1,26.9
		c-7.5,7.5-16.4,11.2-26.9,11.2s-19.5-3.7-26.9-11.2c-7.5-7.4-11.2-16.4-11.2-26.9c0-10.5,3.7-19.5,11.2-26.9
		C191,313.5,200,309.7,210.5,309.7z M210.5,372.5c6.8,0,12.6-2.4,17.4-7.2c4.8-4.9,7.2-10.7,7.2-17.5c0-6.8-2.4-12.6-7.2-17.4
		c-4.8-4.8-10.6-7.2-17.4-7.2c-6.8,0-12.6,2.4-17.5,7.2c-4.8,4.8-7.2,10.6-7.2,17.4c0,6.8,2.4,12.6,7.2,17.5
		C197.9,370.1,203.7,372.5,210.5,372.5z"/>
	<path class="st1" d="M292.1,310.7c1.9,0,3.5,0.7,4.8,2c1.3,1.3,2,2.9,2,4.8c0,1.8-0.7,3.4-2,4.7c-1.3,1.3-2.9,2-4.8,2h-28.5v19.5
		h20.2c1.8,0,3.5,0.6,4.8,1.9c1.3,1.3,1.9,2.9,1.9,4.8s-0.6,3.5-1.9,4.8c-1.3,1.3-2.9,2-4.8,2h-20.2v21.1c0,1.9-0.7,3.5-2,4.8
		c-1.3,1.3-2.9,2-4.7,2c-1.9,0-3.5-0.7-4.8-2c-1.3-1.3-2-2.9-2-4.8v-60.7c0-1.9,0.7-3.5,2-4.8c1.3-1.3,2.9-2,4.8-2H292.1z"/>
	<path class="st1" d="M318.5,324.1v16.8h21.6c1.9,0,3.5,0.7,4.8,2c1.3,1.3,2,2.9,2,4.7c0,1.9-0.7,3.5-2,4.8c-1.3,1.3-2.9,2-4.8,2
		h-21.6v17.1H347c1.9,0,3.5,0.6,4.8,1.9c1.3,1.3,2,2.9,2,4.8c0,1.9-0.7,3.5-2,4.8c-1.3,1.3-2.9,2-4.8,2h-35.2c-1.9,0-3.5-0.7-4.8-2
		c-1.3-1.3-2-2.9-2-4.8v-60.7c0-1.9,0.7-3.5,2-4.8c1.3-1.3,2.9-2,4.8-2H347c1.9,0,3.5,0.7,4.8,2c1.3,1.3,2,2.9,2,4.8
		c0,1.8-0.7,3.4-2,4.7c-1.3,1.3-2.9,2-4.8,2H318.5z"/>
	<path class="st1" d="M416.7,335.4c0,5-1.4,9.6-4.1,13.7c-2.7,4-6.3,7-10.7,8.9l12.1,16.1c1.2,1.5,1.6,3.1,1.3,5
		c-0.3,1.8-1.1,3.3-2.6,4.4c-1.5,1.1-3.2,1.6-5,1.3c-1.8-0.3-3.3-1.2-4.4-2.6l-16.7-22.2h-8.8v18.1c0,1.9-0.7,3.5-2,4.8
		c-1.3,1.3-2.9,2-4.7,2c-1.9,0-3.5-0.7-4.8-2c-1.3-1.3-2-2.9-2-4.8v-60.8c0-1.8,0.7-3.5,2-4.8c1.3-1.3,2.9-1.9,4.8-1.9h0.3l0.4,0.1
		l0.3-0.1h0.4h19.9c6.7,0.1,12.5,2.5,17.3,7.3C414.3,322.8,416.7,328.6,416.7,335.4z M392.1,346.6c3.1-0.1,5.7-1.2,7.9-3.3
		c2.1-2.2,3.2-4.8,3.2-7.9c0-3.1-1.1-5.7-3.2-7.9c-2.2-2.2-4.8-3.3-7.8-3.3h-14.5v22.5H392.1z"/>
</g>
<g id="Shape_7_copy_5_3_">
	<g>
		<path class="st1" d="M320.1,138.1c-1.6-9.9-10.4-17.1-20.5-17.1c-11.8,0-23.6,0-35.3,0c-3.7,0-7.4,0.1-11.1,0.6
			c-8.3,1.2-16.2,3.7-23.5,7.8c0.3,0.8,0.3,1.6,0.3,2.4c0,6.6,0,13.1,0,19.7c0,1.8,0.2,2,1.8,1.2c8.3-4,17-6.8,26-8.8
			c1.3-0.3,1.6,0,1.6,1.3c0,5.2,0,10.4,0,15.7c0,0.8,0.1,1.5,0.3,2.3c1.4-0.1,2.9-0.2,4.3-0.2c11.6,0,23.3,0.1,34.9,0
			c8.9,0,15.4-3.9,19.4-12C320.4,146.8,320.8,142.4,320.1,138.1z M235.3,184.3c1.5-6.8,5.3-12.2,10.9-16.4c0-1.5-0.9-1.1-1.8-0.8
			c-9,3.2-16.9,8.2-23.4,15.2c-6.7,7.2-10.8,15.7-13,25.3c-1.6,6.8-2,13.8-1.9,20.8c0.3,0.5,0.6,1,0.9,1.4
			c4.1,5.7,8.9,10.6,14.5,14.8c7.8,5.8,16.3,9.9,25.9,11.9c0-13.3,0-26.7,0-40c0-0.9,0.1-1.9,0.4-2.7c-0.4-0.3-0.8-0.6-1.3-0.9
			C237.2,206.4,232.8,195.3,235.3,184.3z M284.4,192.9c-3.3-2.3-7-3.3-11.1-3.4c-8.7-0.2-17.1,5.5-19.7,13.3
			c-1.1,2.7-1.5,5.5-1.4,8.3c0.1,2.3-1.1,3.3-3.4,3.1c0.1,0.4,0.5,0.7,0.8,0.9c4.5,3.5,9.3,6.4,14.8,8.2c7.9,2.5,15.4,2,22-3.4
			c3.1-2.5,5.4-5.7,7.3-9.2c0.1-3.4-0.6-6.6-2.2-9.6C290.1,197.6,287.5,195,284.4,192.9z"/>
	</g>
</g>
<g id="Shape_9_copy_5_2_">
	<g>
		<path class="st2" d="M247.3,256.4c0-13.3,0-26.7,0-40c0-0.9,0.1-1.9,0.4-2.7c0.4,0.2,0.8,0.4,1.2,0.6c0.1,0.4,0.5,0.7,0.8,0.9
			c4.5,3.5,9.3,6.4,14.8,8.2c7.9,2.5,15.4,2,22-3.4c3.1-2.5,5.4-5.7,7.3-9.2c0,6.8,0.6,13.7-0.1,20.5c-1.2,11.2-7.4,19.2-17.5,24.2
			c-5.8,2.9-12,3.2-18.3,2.7C254.3,257.8,250.8,257.4,247.3,256.4z"/>
	</g>
</g>
<g id="Shape_8_copy_5_4_">
	<g>
		<path class="st3" d="M259.4,160.9c0-5.2,0-10.4,0-15.7c0-1.3-0.3-1.6-1.6-1.3c-9,2-17.7,4.9-26,8.8c-1.6,0.8-1.8,0.6-1.8-1.2
			c0-6.6,0-13.1,0-19.7c0-0.8,0-1.6-0.3-2.4c-8.4,4.4-15.5,10.5-21.3,18.1c-12.4,16.4-16.8,34.8-13.1,55c1.7,9.3,5.3,18,10.8,25.7
			c-0.1-7,0.3-13.9,1.9-20.8c2.2-9.5,6.3-18.1,13-25.3c6.5-7,14.4-12,23.4-15.2c0.9-0.3,1.8-0.7,1.8,0.8c4.1-2.9,8.7-4.2,13.6-4.7
			C259.5,162.4,259.4,161.6,259.4,160.9z"/>
	</g>
</g>
</svg>
