<svg xmlns="http://www.w3.org/2000/svg" xmlns:xlink="http://www.w3.org/1999/xlink" width="265.52" height="220.578" viewBox="0 0 265.52 220.578"><defs><style>.a{fill:#dadada;}.b{fill:#e5ecff;}.c{fill:#86a7ff;}.d{fill:none;}.e,.r{fill:#fff;}.f,.i{fill:#102048;}.g{fill:#fbc343;}.h{fill:#3a6bea;}.i{opacity:0.3;}.j{fill:#1f3c88;}.k{fill:#e28b6d;}.l{fill:#e49b31;}.m{fill:url(#a);}.n{fill:url(#b);}.o{fill:url(#c);}.p{opacity:0.05;mix-blend-mode:darken;isolation:isolate;}.q{fill:#be1e2d;}.r{opacity:0.44;}.s{fill:#e6e6e6;}.t{fill:#3f3d56;}.u{fill:#7d69ed;}.v{fill:#f9b384;}.w{fill:#f688bd;}.x{fill:#61c8dc;}</style><linearGradient id="a" x1="0.904" y1="-0.386" x2="-0.133" y2="1.887" gradientUnits="objectBoundingBox"><stop offset="0" stop-color="#fc8ab3"/><stop offset="1" stop-color="#e783d9"/></linearGradient><linearGradient id="b" x1="-0.101" y1="0.028" x2="1.055" y2="0.936" xlink:href="#a"/><linearGradient id="c" x1="-0.065" y1="1.12" x2="0.89" y2="0.072" gradientUnits="objectBoundingBox"><stop offset="0" stop-color="#6ec9d1"/><stop offset="1" stop-color="#59c7e4"/></linearGradient></defs><g transform="translate(-89 -242.618)"><g transform="translate(-40.661 20.974)"><g transform="translate(190.081 240.644)"><path class="a" d="M-833.039,626.739H-971.483V425.161h138.444Zm-137.573-.872h136.7V426.033h-136.7Z" transform="translate(971.483 -425.161)"/><g transform="translate(71.232 21.094)"><path class="a" d="M-564.1,563.439h-17.728V540.552H-564.1Zm-16.855-.872h15.983V541.424h-15.983Z" transform="translate(581.832 -540.552)"/><path class="a" d="M-388.472,563.439H-406.2V540.552h17.728Zm-16.856-.872h15.983V541.424h-15.983Z" transform="translate(438.307 -540.552)"/></g></g><g transform="translate(145.134 332.215)"><g transform="translate(0)"><rect class="b" width="108.918" height="108.918" transform="translate(0.436 0.436)"/><path class="c" d="M-960.716,1035.86H-1070.5V926.071h109.789Zm-108.917-.872h108.045V926.944h-108.045Z" transform="translate(1070.505 -926.071)"/></g><g transform="translate(1.028 1.028)"><rect class="d" width="20.863" height="20.864" transform="translate(29.535 34.395)"/><rect class="d" width="20.863" height="20.864" transform="translate(29.535 56.131)"/><rect class="d" width="20.864" height="20.864" transform="translate(7.799 56.131)"/><rect class="d" width="20.864" height="20.864" transform="translate(7.799 34.395)"/><rect class="d" width="20.864" height="20.863" transform="translate(7.799 12.66)"/><rect class="d" width="20.863" height="20.863" transform="translate(29.535 12.66)"/><rect class="d" width="20.864" height="20.863" transform="translate(7.799 77.868)"/><rect class="d" width="20.864" height="20.863" transform="translate(73.006 77.868)"/><rect class="d" width="20.863" height="20.863" transform="translate(29.535 77.868)"/><rect class="d" width="20.864" height="20.864" transform="translate(73.006 56.131)"/><rect class="d" width="20.864" height="20.864" transform="translate(73.006 34.395)"/><rect class="d" width="20.863" height="20.863" transform="translate(51.27 77.868)"/><rect class="d" width="20.864" height="20.863" transform="translate(73.006 12.66)"/><rect class="d" width="20.863" height="20.864" transform="translate(51.27 56.131)"/><rect class="d" width="20.863" height="20.863" transform="translate(51.27 12.66)"/><rect class="d" width="20.863" height="20.864" transform="translate(51.27 34.395)"/><rect class="e" width="20.864" height="0.872" transform="translate(73.006 98.73)"/><rect class="e" width="20.864" height="0.872" transform="translate(7.799 98.73)"/><rect class="e" width="20.863" height="0.872" transform="translate(29.535 98.73)"/><rect class="e" width="20.863" height="0.872" transform="translate(51.27 98.73)"/><rect class="e" width="12.992" height="0.872" transform="translate(94.742 98.73)"/><rect class="e" width="6.926" height="0.872" transform="translate(0 98.73)"/><rect class="e" width="20.864" height="0.872" transform="translate(73.006 76.995)"/><rect class="e" width="20.863" height="0.872" transform="translate(29.535 76.995)"/><rect class="e" width="6.926" height="0.872" transform="translate(0 76.995)"/><rect class="e" width="12.992" height="0.872" transform="translate(94.742 76.995)"/><rect class="e" width="20.863" height="0.872" transform="translate(51.27 76.995)"/><rect class="e" width="20.864" height="0.872" transform="translate(7.799 76.995)"/><rect class="e" width="20.864" height="0.872" transform="translate(73.006 55.259)"/><rect class="e" width="20.863" height="0.872" transform="translate(51.27 55.259)"/><rect class="e" width="20.864" height="0.872" transform="translate(7.799 55.259)"/><rect class="e" width="20.863" height="0.872" transform="translate(29.535 55.259)"/><rect class="e" width="6.926" height="0.872" transform="translate(0 55.259)"/><rect class="e" width="12.992" height="0.872" transform="translate(94.742 55.259)"/><rect class="e" width="20.863" height="0.872" transform="translate(29.535 33.523)"/><rect class="e" width="12.992" height="0.872" transform="translate(94.742 33.523)"/><rect class="e" width="20.864" height="0.872" transform="translate(7.799 33.523)"/><rect class="e" width="20.863" height="0.872" transform="translate(51.27 33.523)"/><rect class="e" width="6.926" height="0.872" transform="translate(0 33.523)"/><rect class="e" width="20.864" height="0.872" transform="translate(73.006 33.523)"/><rect class="e" width="20.864" height="0.872" transform="translate(73.006 11.788)"/><rect class="e" width="6.926" height="0.872" transform="translate(0 11.788)"/><rect class="e" width="12.992" height="0.872" transform="translate(94.742 11.788)"/><rect class="e" width="20.863" height="0.872" transform="translate(51.27 11.788)"/><rect class="e" width="20.864" height="0.872" transform="translate(7.799 11.788)"/><rect class="e" width="20.863" height="0.872" transform="translate(29.535 11.788)"/><path class="e" d="M-551.4,965.218v74.211h.873V931.694h-.873v33.524Z" transform="translate(645.266 -931.694)"/><path class="e" d="M-670.3,965.218v74.211h.873V931.694h-.873v33.524Z" transform="translate(742.431 -931.694)"/><path class="e" d="M-789.2,965.218v74.211h.872V931.694h-.872v33.524Z" transform="translate(839.593 -931.694)"/><path class="e" d="M-908.093,965.218v74.211h.872V931.694h-.872v33.524Z" transform="translate(936.755 -931.694)"/><path class="e" d="M-1026.993,1031.3v8.132h.872V931.694h-.872v99.6Z" transform="translate(1033.92 -931.694)"/></g></g><g transform="translate(190.869 292.81)"><g transform="translate(0 0)"><path class="f" d="M-737.948,713.7c-.062-.148.229-.655.288-.78a4.273,4.273,0,0,1,1.119-1.49,3.87,3.87,0,0,1,3.957-.425,4.121,4.121,0,0,1,1.834,1.59,19.025,19.025,0,0,1,.893,2.105,5.319,5.319,0,0,0,1.806,1.894c1.472.981,3.374,1.721,4.591,3.074a4.946,4.946,0,0,1,1.2,3.935,5.86,5.86,0,0,1-2.458,3.712C-730.307,731.815-737.935,713.736-737.948,713.7Z" transform="translate(753.015 -710.634)"/><path class="g" d="M-749.05,788.207c.262-9.683-2.775-19.006-10.008-20.688-8.914,1.6-10.333,12.726-9.886,20.428A82.345,82.345,0,0,1-749.05,788.207Z" transform="translate(778.397 -757.099)"/><path class="g" d="M-777.884,767.519s-13.582,1.514-14.171,14.213l5.466,3.7Z" transform="translate(797.224 -757.099)"/><g transform="translate(0 27.631)"><path class="h" d="M-722.873,866.7c-.7,4.553-6.054,5.269-9.744,5.984-1.771.349-3.55.628-5.348.873-1.736.245-3.481.437-5.225.611l-.828.078-.131-5.644-.07-2.9.471-.148c1.038-.324,3.664-1.126,6.63-1.92,4.4-1.177,9.551-2.338,11.27-1.849A4.314,4.314,0,0,1-722.873,866.7Z" transform="translate(758.133 -861.665)"/><path class="f" d="M-812.568,892.623l-7.759,7.128s8.452-.253,9.272-1.893Z" transform="translate(820.327 -886.964)"/><path class="i" d="M-737.652,881.683c-1.736.245-3.481.436-5.225.611l-.828.078-.131-5.644.4-3.054c1.038-.323,4.17-1.271,7.136-2.065C-736.631,873.52-737.879,878.464-737.652,881.683Z" transform="translate(757.82 -869.792)"/></g><g transform="translate(6.11 27.576)"><path class="j" d="M-776.643,1022.806s6.265-.336,9.209-4.037l-6.392-1.682Z" transform="translate(778.519 -988.62)"/><g transform="translate(2.083 26.875)"><path class="f" d="M-768.823,1008.38l2.257,11.086-8.941,2.754,2.77-5.689-1.079-5.979Z" transform="translate(775.508 -1008.38)"/><rect class="e" width="0.436" height="2.458" transform="translate(2.732 8.367) rotate(-79.921)"/></g><path class="h" d="M-782.38,862.123h0a11.032,11.032,0,0,0-4.267,8.121c-.382,6.959-.659,19.266,1.618,25.309,0,0,4.415-4.92,9.208-4.037l.253-23.464,3.154-6.686Z" transform="translate(786.905 -861.366)"/></g><path class="k" d="M-733.983,845.621a16.985,16.985,0,0,0-4.6,1.482,4.076,4.076,0,0,0-1.829,2.523h6.552l2.089.032,1.514-1.8-2.4-2.365Z" transform="translate(755.025 -820.82)"/><path class="g" d="M-714.539,767.519s16.353,3.7,15.011,13.624c-.42,3.111-5.383,4.457-11.1,4.793,0,0,0-2.964-2.208-4.036l5.8-3.911Z" transform="translate(733.878 -757.099)"/><g transform="translate(14.897)"><path class="k" d="M-729.73,746.685v5.068a2.019,2.019,0,0,0,2.02,2.02,2.019,2.019,0,0,0,2.02-2.02v-5.068Z" transform="translate(731.395 -740.073)"/><path class="f" d="M-729.73,751.58v2.813a5.211,5.211,0,0,0,3.194-2.619Z" transform="translate(731.395 -744.074)"/><path class="k" d="M-738.67,717.651s-.942,5.7,1.606,5.814a5.311,5.311,0,0,0,3.264-1.12,3.218,3.218,0,0,0,1.316-2.525l.072-2.5-2.713-1.827A3.9,3.9,0,0,0-738.67,717.651Z" transform="translate(738.84 -714.581)"/><path class="f" d="M-737.909,713.587s2.351-1.655,3.684.245c1.976,2.817,2.649,2.018,2.649,2.018l.95.562s1.182-4.99-2.88-5.787C-736.608,710.015-737.521,712.148-737.909,713.587Z" transform="translate(738.079 -710.518)"/><path class="k" d="M-711.178,732.273a1.231,1.231,0,0,0,.257,1.7,1.231,1.231,0,0,0,1.6-.627,1.232,1.232,0,0,0-.257-1.7A1.231,1.231,0,0,0-711.178,732.273Z" transform="translate(716.412 -727.687)"/></g><g transform="translate(0.613 19.739)"><rect class="j" width="9.199" height="1.309" transform="translate(11.348 9.031)"/><path class="j" d="M-800.882,828.837h-12.7l-3.386-10.341h12.7Z" transform="translate(816.973 -818.495)"/></g><path class="l" d="M-705.629,826.109l-.233-.368,6.876-4.347.234.367Z" transform="translate(726.788 -801.125)"/><path class="l" d="M-730.53,792.412h-.024a3.076,3.076,0,0,1-2.561-1.254l.358-.251a2.645,2.645,0,0,0,2.206,1.068,3.186,3.186,0,0,0,2.618-1.288l.354.254A3.617,3.617,0,0,1-730.53,792.412Z" transform="translate(749.058 -776.032)"/></g></g><g transform="translate(129.661 247.877)"><g transform="translate(25.354 0)"><rect class="m" width="41.996" height="41.996" rx="14.661"/><path class="e" d="M1063.666,319.478a.734.734,0,0,0,.408-.75q-.024-.185-.055-.37c-.037-.224-.083-.445-.134-.662a.735.735,0,0,0-.648-.56l-2.24-.215a.738.738,0,0,1-.581-.391,7.707,7.707,0,0,0-.764-1.181.731.731,0,0,1-.118-.691l.725-2.131a.735.735,0,0,0-.245-.821q-.416-.318-.86-.593a.735.735,0,0,0-.854.061l-1.734,1.43a.734.734,0,0,1-.688.134,7.689,7.689,0,0,0-1.377-.3.736.736,0,0,1-.572-.405l-.994-2.019a.734.734,0,0,0-.75-.408c-.122.016-.245.033-.37.054q-.335.057-.661.134a.733.733,0,0,0-.559.647l-.216,2.24a.735.735,0,0,1-.391.581,7.727,7.727,0,0,0-1.18.764.735.735,0,0,1-.692.118l-2.13-.725a.736.736,0,0,0-.821.246c-.213.276-.41.563-.595.859a.737.737,0,0,0,.062.855l1.43,1.733a.736.736,0,0,1,.134.688,7.592,7.592,0,0,0-.294,1.376.734.734,0,0,1-.406.572l-2.019.994a.736.736,0,0,0-.408.75c.016.123.033.246.055.37.037.224.083.445.134.662a.737.737,0,0,0,.648.56l2.24.215a.737.737,0,0,1,.581.391,7.664,7.664,0,0,0,.764,1.18.737.737,0,0,1,.118.692l-.725,2.131a.736.736,0,0,0,.244.821q.417.318.861.593a.734.734,0,0,0,.854-.061l1.733-1.43a.735.735,0,0,1,.688-.135,7.669,7.669,0,0,0,1.376.295.735.735,0,0,1,.573.405l.994,2.02a.733.733,0,0,0,.749.408c.124-.016.247-.033.37-.054.223-.038.445-.083.662-.134a.737.737,0,0,0,.56-.647l.214-2.24a.734.734,0,0,1,.391-.581,7.667,7.667,0,0,0,1.18-.764.738.738,0,0,1,.692-.118l2.13.726a.738.738,0,0,0,.822-.246q.315-.414.593-.859a.736.736,0,0,0-.062-.855l-1.43-1.733a.734.734,0,0,1-.134-.688,7.761,7.761,0,0,0,.294-1.376.735.735,0,0,1,.406-.572Zm-6.416-.015a3.81,3.81,0,1,1-3.8-3.152A3.811,3.811,0,0,1,1057.25,319.462Z" transform="translate(-1032.574 -298.463)"/></g><g transform="translate(0 121.773)"><g transform="translate(0 0)"><circle class="n" cx="13.267" cy="13.267" r="13.267" transform="matrix(0.663, -0.748, 0.748, 0.663, 0, 19.86)"/></g><g transform="translate(10.629 14.249)"><path class="e" d="M567.185,496.113v1.364l-3.271,1.345,3.271,1.345v1.384L562.5,499.5v-1.335Z" transform="translate(-562.502 -494.517)"/><path class="e" d="M582.171,491.827l-4.286,8.958h-1.249l4.286-8.958Z" transform="translate(-571.372 -491.827)"/><path class="e" d="M593.421,501.55v-1.364l3.269-1.345-3.269-1.345v-1.384l4.682,2.051V499.5Z" transform="translate(-581.906 -494.517)"/></g></g><g transform="translate(184.87 41.996)"><path class="o" d="M625.991,251.873H574.864a7,7,0,0,1-7-7v-7.631a7,7,0,0,1,7-7h51.121a7,7,0,0,1,7,7v7.632A7,7,0,0,1,625.991,251.873Z" transform="translate(-567.862 -230.232)"/><g class="p" transform="translate(26.211 7.879)"><path class="q" d="M651.069,256.788H679.5a.908.908,0,0,0,0-1.816h-28.43a.908.908,0,0,0,0,1.816Z" transform="translate(-650.161 -254.972)"/><path class="q" d="M679.5,274.93h-28.43a.908.908,0,0,0,0,1.816H679.5a.908.908,0,0,0,0-1.816Z" transform="translate(-650.161 -268.573)"/></g><g transform="translate(27.185 6.734)"><rect class="e" width="30.246" height="1.816" rx="0.908"/><rect class="e" width="30.246" height="1.816" rx="0.908" transform="translate(0 6.356)"/></g><g transform="translate(5.675 3.65)"><path class="r" d="M592.732,268.808a5.4,5.4,0,0,1-5.253-5.365v-.356h-1.8v.356a7.2,7.2,0,0,0,7.039,7.165l.363.006v-1.8Z" transform="translate(-585.679 -256.273)"/><path class="e" d="M592.846,241.691a7.175,7.175,0,0,0-7.167,7.168v.356h1.8v-.356a5.368,5.368,0,1,1,5.368,5.368l-.478-.011v1.8l.478.009a7.168,7.168,0,1,0,0-14.335Z" transform="translate(-585.679 -241.691)"/></g></g></g><g transform="translate(295.626 330.281)"><path class="s" d="M641.072,101.594h-.615V84.745a9.752,9.752,0,0,0-9.752-9.752h-35.7a9.752,9.752,0,0,0-9.752,9.752v92.437a9.752,9.752,0,0,0,9.752,9.752h35.7a9.752,9.752,0,0,0,9.752-9.752V113.588h.615Z" transform="translate(-585.255 -74.993)"/><path class="e" d="M645.9,91.488h-4.66a3.46,3.46,0,0,1-3.2,4.767H617.588a3.46,3.46,0,0,1-3.2-4.767h-4.352a7.283,7.283,0,0,0-7.283,7.283v92.3a7.283,7.283,0,0,0,7.283,7.283H645.9a7.283,7.283,0,0,0,7.283-7.283h0V98.77A7.283,7.283,0,0,0,645.9,91.488Z" transform="translate(-600.059 -88.95)"/><path class="t" d="M711.269,196.472A11.228,11.228,0,1,1,722.5,185.244,11.228,11.228,0,0,1,711.269,196.472Zm0-22.149a10.921,10.921,0,1,0,10.921,10.921A10.921,10.921,0,0,0,711.269,174.323Z" transform="translate(-682.385 -158.785)"/><path class="t" d="M727.731,678.4a5.691,5.691,0,1,1,5.691-5.691A5.691,5.691,0,0,1,727.731,678.4Zm0-11.074a5.383,5.383,0,1,0,5.383,5.383A5.383,5.383,0,0,0,727.731,667.323Z" transform="translate(-701.001 -575.955)"/><path class="t" d="M902.468,396.84H879.461V373.833h23.007Zm-22.7-.308h22.392V374.141H879.769Z" transform="translate(-834.209 -327.868)"/><path class="t" d="M644.516,534.776H632.04V522.3h12.476Zm-12.169-.308h11.861V522.607H632.348Z" transform="translate(-624.844 -453.498)"/><circle class="s" cx="9.229" cy="9.229" r="9.229" transform="translate(13.502 15.385)"/><rect class="u" width="20.177" height="20.177" transform="translate(41.623 42.021)"/><rect class="s" width="10.816" height="10.816" transform="translate(21.546 77.575) rotate(180)"/><circle class="u" cx="4.614" cy="4.614" r="4.614" transform="translate(19.04 91.214)"/></g><g transform="translate(270.183 353.786)"><g transform="translate(0 11.801)"><path class="v" d="M-237.95,1234.084s.43,5.906-.414,6.225-1.026-2.273-1.026-2.273-.692,3.844-1.261,3.764-.662-2.12-.662-2.12-.141,2.328-.8,2.176-.27-2.9-.27-2.9-.147,2.275-.686,2.22-.316-2.6-.316-2.6-.434,1.37-.862,1.118.887-6.39.887-6.39l2.678-2.3Z" transform="translate(244.33 -1208.628)"/><path class="l" d="M-258.919,1108.623s-7.4,2.785-10.026,24.669l5.292,1.412Z" transform="translate(269.908 -1108.623)"/></g><g transform="translate(3.117 27.397)"><g transform="translate(11.612 48.859)"><path class="f" d="M-356.888,1461.326l-1.074,11.459h12.533l-5.849-5.012.955-6.565Z" transform="translate(357.962 -1461.208)"/><rect class="e" width="0.655" height="2.617" transform="matrix(-0.471, -0.882, 0.882, -0.471, 4.531, 8.087)"/></g><g transform="translate(0.989 48.859)"><path class="f" d="M-298.776,1461.326l-1.074,11.459h12.533l-5.849-5.012.955-6.565Z" transform="translate(299.851 -1461.208)"/><rect class="e" width="0.654" height="2.839" transform="translate(4.427 8.317) rotate(-121.245)"/></g><path class="u" d="M-349.044,1196.725s2.255,7.3,4.384,13.015a24.352,24.352,0,0,1,1.448,10.489c-.57,6.966-1.771,18.413-3.882,24.958l-10.663-.478,1.91-26.578-5.729-24.19Z" transform="translate(367.938 -1193.94)"/><path class="u" d="M-300.873,1203.313s-2.566,34.734-2.208,46.67l10.145.238,3.939-31.272-5.968-18.263Z" transform="translate(303.115 -1199.453)"/><path class="f" d="M-288.66,1308.225l-.435-.031,1.907-26.543-2.467-9.083-3.565-.49.06-.433,3.85.528,2.562,9.435,0,.037Z" transform="translate(299.058 -1257.441)"/><path class="f" d="M-341.227,1257.158l-.428-.083c.038-.2,3.807-19.694,3.377-27.643s-5.923-20.408-5.979-20.533l.4-.177c.056.127,5.582,12.669,6.016,20.686S-341.189,1256.961-341.227,1257.158Z" transform="translate(359.449 -1206.019)"/></g><g transform="translate(9.722 0)"><path class="v" d="M-291,1091.578l-4.307-.2-.082-5.558.829-.883,3.175.512.009.12.184,2.95Z" transform="translate(297.101 -1077.464)"/><path class="f" d="M-291.661,1091.344a4.528,4.528,0,0,1-2.676-2.785l2.493-.165Z" transform="translate(297.57 -1080.291)"/><path class="v" d="M-298.982,1056.568s2,6.415-.458,7.016-4.524-1.633-4.524-1.633l.315-3.751,1.546-1.632Z" transform="translate(305.882 -1054.284)"/><path class="v" d="M-306.228,1071.709a.746.746,0,0,1-.759.732.746.746,0,0,1-.759-.732.745.745,0,0,1,.759-.729A.745.745,0,0,1-306.228,1071.709Z" transform="translate(314.589 -1066.061)"/><path class="f" d="M-303.843,1049.534s-.592-2.348.8-2.233,2.978-.115,3.112-1.357a1.982,1.982,0,0,0-3.494-1.144s-4.792-.134-4.964,2.519.954,5.957,1.814,6.166,1.3-3.226,2.215-3.13Z" transform="translate(308.405 -1044.071)"/><path class="v" d="M-287.1,1070.23a.958.958,0,0,1-.445,1.26.959.959,0,0,1-1.121-.728.96.96,0,0,1,.445-1.261A.96.96,0,0,1-287.1,1070.23Z" transform="translate(291.918 -1064.823)"/></g><path class="g" d="M-312.573,1124.841a.155.155,0,0,1-.043-.009,45.289,45.289,0,0,0-5.173-.48c-3.428-.14-7.912.07-11.436,1.561-.174.078.175-19.688,7.581-19.933S-312.573,1124.841-312.573,1124.841Z" transform="translate(334.587 -1094.661)"/><path class="l" d="M-322.417,1143.385a45.333,45.333,0,0,0-5.173-.481,25.921,25.921,0,0,1-.8-14.223Z" transform="translate(344.388 -1113.214)"/><g transform="translate(12.683 5.289) rotate(7)"><path class="v" d="M4.834.717s3.41,4.235,3.039,4.951-1.586-.694-1.586-.694,1.989,3.66,1.472,3.978S6.691,8.242,5.936,7.527s-1.245.525-2.554.59S0,3.88,0,3.88L.557,0Z" transform="matrix(0.105, -0.995, 0.995, 0.105, 19.15, 7.858)"/><path class="g" d="M5.968,2.587c1.612,3.521,3.641,10.742,6.983,16.53L8.117,22.282S.637,11.877,0,2.567C0,2.567,3.31-3.222,5.968,2.587Z" transform="matrix(0.105, -0.995, 0.995, 0.105, 0, 14.006)"/></g></g></g><path class="w" d="M7513.893-459.94v1.422a1.708,1.708,0,0,0,1.708,1.709,1.709,1.709,0,0,0,1.709-1.709v-1.422a1.709,1.709,0,0,0-1.709-1.709A1.708,1.708,0,0,0,7513.893-459.94Z" transform="translate(-7204.715 704.267)"/><path class="u" d="M7513.893-460.766v.735a.882.882,0,0,0,.882.883.883.883,0,0,0,.883-.883v-.735a.883.883,0,0,0-.883-.883A.882.882,0,0,0,7513.893-460.766Z" transform="translate(-7163.498 806.986)"/><path class="w" d="M7515.6-429.852a1.709,1.709,0,0,0-1.708,1.709v1.423a1.709,1.709,0,0,0,1.708,1.709,1.71,1.71,0,0,0,1.709-1.709v-1.423A1.709,1.709,0,0,0,7515.6-429.852Z" transform="translate(-7204.715 680.184)"/><path class="u" d="M7514.775-429.852a.883.883,0,0,0-.882.883v.735a.883.883,0,0,0,.882.883.883.883,0,0,0,.883-.883v-.735A.883.883,0,0,0,7514.775-429.852Z" transform="translate(-7163.498 779.174)"/><path class="w" d="M7498.191-442.818h-1.422a1.709,1.709,0,0,0-1.709,1.709,1.709,1.709,0,0,0,1.709,1.709h1.422a1.709,1.709,0,0,0,1.708-1.709A1.709,1.709,0,0,0,7498.191-442.818Z" transform="translate(-7190.452 690.005)"/><path class="u" d="M7496.678-442.818h-.735a.883.883,0,0,0-.883.883.883.883,0,0,0,.883.883h.735a.883.883,0,0,0,.882-.883A.882.882,0,0,0,7496.678-442.818Z" transform="translate(-7147.025 790.515)"/><path class="w" d="M7531.7-441.109a1.708,1.708,0,0,0-1.709-1.709h-1.422a1.709,1.709,0,0,0-1.709,1.709,1.71,1.71,0,0,0,1.709,1.709h1.422A1.709,1.709,0,0,0,7531.7-441.109Z" transform="translate(-7214.534 690.005)"/><path class="u" d="M7529.356-441.935a.882.882,0,0,0-.883-.883h-.734a.883.883,0,0,0-.883.883.883.883,0,0,0,.883.883h.734A.882.882,0,0,0,7529.356-441.935Z" transform="translate(-7174.837 790.515)"/><path class="x" d="M7538.41-647.954l-.055,1.993,1.879-.668a1.735,1.735,0,0,1,.585-.1,1.752,1.752,0,0,1,.588.1l1.879.668-.055-1.993a1.752,1.752,0,0,1,.361-1.115l1.216-1.581-1.912-.563a1.753,1.753,0,0,1-.949-.689l-1.127-1.645-1.127,1.645a1.749,1.749,0,0,1-.949.689l-1.912.563,1.216,1.581A1.748,1.748,0,0,1,7538.41-647.954Z" transform="translate(-7443.539 989.128)"/></g></svg>