<svg xmlns="http://www.w3.org/2000/svg" xmlns:xlink="http://www.w3.org/1999/xlink" width="180" height="180" viewBox="0 0 180 180">
  <defs>
    <clipPath id="clip-Copy">
      <rect width="180" height="180"/>
    </clipPath>
  </defs>
  <g id="Copy" clip-path="url(#clip-Copy)">
    <g id="Group_8493" data-name="Group 8493" transform="translate(-726.219 -540.159)">
      <path id="Path_8849" data-name="Path 8849" d="M830.917,549.81h-68a27.079,27.079,0,0,0-27.045,27.045v68.011A27.077,27.077,0,0,0,762.914,671.9h68a27.079,27.079,0,0,0,27.053-27.038V576.855A27.081,27.081,0,0,0,830.917,549.81Zm3.19,95.057a3.186,3.186,0,0,1-3.19,3.174h-68a3.179,3.179,0,0,1-3.182-3.174V576.855a3.181,3.181,0,0,1,3.182-3.182h68a3.188,3.188,0,0,1,3.19,3.182Z" transform="translate(46.248 46.255)" fill="#e50914"/>
      <path id="Path_8850" data-name="Path 8850" d="M763.813,641.406h-7.549a3.188,3.188,0,0,1-3.182-3.19v-68a3.188,3.188,0,0,1,3.182-3.189h68.011a3.181,3.181,0,0,1,3.174,3.189v7.557a11.932,11.932,0,0,0,23.864,0v-7.557a27.079,27.079,0,0,0-27.038-27.053H756.265a27.081,27.081,0,0,0-27.046,27.053v68a27.081,27.081,0,0,0,27.046,27.054h7.549a11.932,11.932,0,0,0,0-23.864Z" transform="translate(0 0)" fill="#e50914"/>
    </g>
  </g>
</svg>
