<svg xmlns="http://www.w3.org/2000/svg" width="175" height="175" viewBox="0 0 175 175">
  <g id="checkbox_unselected" data-name="checkbox unselected" transform="translate(-807.58 -511.645)">
    <path id="Path_8853" data-name="Path 8853" d="M947.58,520.4a26.282,26.282,0,0,1,26.25,26.25v105a26.282,26.282,0,0,1-26.25,26.25h-105a26.282,26.282,0,0,1-26.25-26.25v-105a26.282,26.282,0,0,1,26.25-26.25h105m0-8.75h-105a35,35,0,0,0-35,35v105a35,35,0,0,0,35,35h105a35,35,0,0,0,35-35v-105a35,35,0,0,0-35-35Z" transform="translate(0 0)" fill="#e50914"/>
  </g>
</svg>
